<mxfile host="app.diagrams.net" modified="2021-02-20T16:05:56.035Z" agent="5.0 (Macintosh; Intel Mac OS X 10_15_6) AppleWebKit/605.1.15 (KHTML, like Gecko) Version/14.0.2 Safari/605.1.15" etag="hPvkNDiYu0J_jongkyzn" version="14.4.2" type="github">
  <diagram id="sdGDHfsCgyWf_rmMTbfO" name="第 1 页">
    <mxGraphModel dx="937" dy="1710" grid="1" gridSize="10" guides="1" tooltips="1" connect="1" arrows="1" fold="1" page="1" pageScale="1" pageWidth="827" pageHeight="1169" math="0" shadow="0">
      <root>
        <mxCell id="0" />
        <mxCell id="1" parent="0" />
        <mxCell id="PGRV0jYM8v0maBaMMQ94-1" value="0" style="rounded=0;whiteSpace=wrap;html=1;fontSize=16;fillColor=#f5f5f5;strokeColor=#666666;fontColor=#333333;" vertex="1" parent="1">
          <mxGeometry x="140" y="240" width="40" height="40" as="geometry" />
        </mxCell>
        <mxCell id="PGRV0jYM8v0maBaMMQ94-2" value="1" style="rounded=0;whiteSpace=wrap;html=1;fontSize=16;fillColor=#f5f5f5;strokeColor=#666666;fontColor=#333333;" vertex="1" parent="1">
          <mxGeometry x="180" y="240" width="40" height="40" as="geometry" />
        </mxCell>
        <mxCell id="PGRV0jYM8v0maBaMMQ94-3" value="110110" style="rounded=0;whiteSpace=wrap;html=1;fontSize=16;fillColor=#dae8fc;strokeColor=#6c8ebf;" vertex="1" parent="1">
          <mxGeometry x="220" y="240" width="240" height="40" as="geometry" />
        </mxCell>
        <mxCell id="PGRV0jYM8v0maBaMMQ94-4" value="1" style="rounded=0;whiteSpace=wrap;html=1;fontSize=16;fillColor=#ffe6cc;strokeColor=#d79b00;" vertex="1" parent="1">
          <mxGeometry x="140" y="280" width="40" height="40" as="geometry" />
        </mxCell>
        <mxCell id="PGRV0jYM8v0maBaMMQ94-5" value="0000110" style="rounded=0;whiteSpace=wrap;html=1;fontSize=16;fillColor=#e1d5e7;strokeColor=#9673a6;" vertex="1" parent="1">
          <mxGeometry x="180" y="280" width="280" height="40" as="geometry" />
        </mxCell>
        <mxCell id="PGRV0jYM8v0maBaMMQ94-6" value="10101010 &lt;br&gt;01101001 &lt;br&gt;11010010 &lt;br&gt;10011010 &lt;br&gt;11111100 &lt;br&gt;11111111" style="rounded=0;whiteSpace=wrap;html=1;fontSize=16;fillColor=#d5e8d4;strokeColor=#82b366;" vertex="1" parent="1">
          <mxGeometry x="140" y="320" width="320" height="130" as="geometry" />
        </mxCell>
        <mxCell id="PGRV0jYM8v0maBaMMQ94-7" value="" style="shape=curlyBracket;whiteSpace=wrap;html=1;rounded=1;fontSize=16;rotation=90;" vertex="1" parent="1">
          <mxGeometry x="290" y="60" width="20" height="320" as="geometry" />
        </mxCell>
        <mxCell id="PGRV0jYM8v0maBaMMQ94-9" value="8 位" style="text;html=1;align=center;verticalAlign=middle;resizable=0;points=[];autosize=1;fontSize=16;" vertex="1" parent="1">
          <mxGeometry x="280" y="190" width="40" height="20" as="geometry" />
        </mxCell>
        <mxCell id="PGRV0jYM8v0maBaMMQ94-11" value="静态表中&lt;br&gt;的 index" style="text;html=1;align=center;verticalAlign=middle;resizable=0;points=[];autosize=1;fontSize=16;fillColor=#dae8fc;strokeColor=#6c8ebf;" vertex="1" parent="1">
          <mxGeometry x="465" y="240" width="80" height="40" as="geometry" />
        </mxCell>
        <mxCell id="PGRV0jYM8v0maBaMMQ94-12" value="value 长度" style="text;html=1;align=center;verticalAlign=middle;resizable=0;points=[];autosize=1;fontSize=16;fillColor=#e1d5e7;strokeColor=#9673a6;" vertex="1" parent="1">
          <mxGeometry x="465" y="290" width="90" height="20" as="geometry" />
        </mxCell>
        <mxCell id="PGRV0jYM8v0maBaMMQ94-13" value="经过&amp;nbsp;&lt;br&gt;huffman 编码&lt;br&gt;的 value string" style="text;html=1;align=center;verticalAlign=middle;resizable=0;points=[];autosize=1;fontSize=16;fillColor=#d5e8d4;strokeColor=#82b366;" vertex="1" parent="1">
          <mxGeometry x="240" y="460" width="120" height="60" as="geometry" />
        </mxCell>
        <mxCell id="PGRV0jYM8v0maBaMMQ94-14" value="为 1 表示 &lt;br&gt;value 经过 &lt;br&gt;huffman 编码" style="text;html=1;align=center;verticalAlign=middle;resizable=0;points=[];autosize=1;fontSize=16;fillColor=#ffe6cc;strokeColor=#d79b00;" vertex="1" parent="1">
          <mxGeometry x="20" y="280" width="110" height="60" as="geometry" />
        </mxCell>
        <mxCell id="PGRV0jYM8v0maBaMMQ94-15" value="" style="shape=image;verticalLabelPosition=bottom;labelBackgroundColor=#ffffff;verticalAlign=top;aspect=fixed;imageAspect=0;image=data:image/png,iVBORw0KGgoAAAANSUhEUgAAAy0AAABDCAYAAACRBuqxAAABP2lDQ1BJQ0MgUHJvZmlsZQAAKJFjYGDiSSwoyGFhYGDIzSspCnJ3UoiIjFJgf8rAxCDCwMkgwCCamFxc4BgQ4ANUwgCjUcG3awyMIPqyLsgsz9vTGKQ17+bss+Q8aXNrrwimehTAlZJanAyk/wBxQnJBUQkDA2MMkK1cXlIAYjcA2SJFQEcB2VNA7HQIewWInQRh7wGrCQlyBrIvANkCyRmJKUD2AyBbJwlJPB2JDbUXBNiMjCwMwwk4lFRQklpRAqKd8wsqizLTM0oUHIGhk6rgmZesp6NgZGBkyMAACmuI6s83wGHIKMaBEEvpY2AwDgQy3iPEspwYGPYwMTAI2iDENNiA3lnDwHCQsSCxKBHuAMZvLMVpxkYQNvd2BgbWaf//fwZ6k12TgeHv9f//f2/////vMgYG5lsMDAe+AQBeuFtQvjoG5QAAADhlWElmTU0AKgAAAAgAAYdpAAQAAAABAAAAGgAAAAAAAqACAAQAAAABAAADLaADAAQAAAABAAAAQwAAAACp5DMkAAAdI0lEQVR4Ae2dCXhU1RXHTyZhiSwqixgBwaAIighSFEVFUasWKiKCVZGCiMW2Vqwg2ooiIC5oFUUrLtWi1l2pIgputMgiO4IQhbBLEBL2QAgQes8NbzqZTMg5ydy8mcn/fl/y3tz3f2f5vTff9+7c5SUdMoUSvEyYMIFGjx5NI0aMoF69eiV4tkgPBEAABEAABEAABEBg+vTpdM4551DVqlUtjHnz5lG/fv2oQYMG9Pnnn1NSUhIgxRGBlDiKFaGCAAiAAAiAAAiAAAiAgIjAkCFDqKCggFq1akVZWVm0evVqSk5OpqFDh6LBIiIYW6JK0WhJS0uzLW1uWaOAAAiAAAiAAAiAAAgkPoEBAwbQ7NmzbYMlNTWVunbtSn369KHWrVsnfvIJmGFSZRgeloDXDSmBAAiAAAiAAAiAAAiAQKUhkET914rmtHw8+MRKAwWJggAIgAAIgAAIgAAIgAAIxA6BQOyEgkhAAARAAARAAARAAARAAARAoDgBNFqKM0ENCIAACIAACIAACIAACIBADBFAoyWGLgZCAQEQAAEQAAEQAAEQAAEQKE6g3I0Wfs1LSa96OdKx4qFEt2bBN1PoX+OG0+af1kTXMKyBQAQCqzIW2fvtx+/mRDiKKhAAARAAARAAARAAgfIQKHej5d6bOtFtXVrSru05ReLghzeuf/q+/kXqK+rDyu/n038nv0Vbt2RVlEv4qcQENq5ZYe+3DaszxBSy1mXSvyc8RZKGjkYrDgBCEAABEAABEAABEIgTAuVutJh+loipevUl9cJEPAmVIFCJCGxan0mfvvU8/bik9N4ZjbYSIUSqIAACIAACIAAClYRAYPhVR9PVbVMrSbpIEwRAAARAAARAAARAAARAIN4IpDSpm0IPmIZLv1dy6NUZuU7jLzh4kD575wVaPOsLyjK/Mtc6pi41b9Werr31HqpR65ig7907t9HUd1+ijEWzKPvnDXRgfz6lNW5GLc/qSF17304pKVWCWt7ZvHEtvTt+NGUuX0jVU2tQ6w6dyUy0KaLxPkhj8PTPDh9IgUCArv/DAzTpjXG0fMEM2r1zO6W3bEM3DXqI6tRPs9IVS+bSR6+NtftnnH0R/fLaWzwTZd7u2LqFPn79aVo2/xvi/dSjalKDRifRxd1uol9c+KsidqOdV3IgmV54eBAd3zidbrpjVDFf4x64lQoKCuiOUS9TkuETbf8eV3YcbbZL5kyz9+HFV/Wm9SuX0eJvv6KtmzdS0+ZnmOs8nNJObFYk3y1Z6+jtv48inrfC16D1OZ3tdVg8+0u65uYh1LhZy6CeOXz4j8ePaJOHTO7L20u7d2y1582Y8h4tXzgzaKPf4Meo3vGN7GeNludxfTnxn3ThldfR0nn/td+fQHIynXpmB7pu4H3mO3a0tckxjn/oT7Rn9w668fYR9hp7zj02nNNvbhvmVWMLAiAAAiAAAiAAAr4SSOHGCpdX+tW127I2XPhBPpCcYm3wv725u4L7vMMPSn+7pw/xXJOq1arTaWedT2t/XEKzvpxoh8cM+/vHtsHB2i0b19HU91+2DZVWv7jQTvT/YfFs+6C5Yuk8GjzmDUpKSmIpbc/5mR4Z1NM8gO00NjtSzdrH0qzPPzQPhXvs8dB/mhi881YvX0QHDx6g8aNuJ55XcOLJp1PdBg3tgzQ/zHoP1zvNnB6OjUv9tOi8iPM502Bau/J7apTegk5vdwHl5+fZ+Q+LZn5RpNHiIq9TW59Dew3TmVPfpy43/CGYJ+fHjcllpvF2VsdfBhss0mvL53ORcmVttNlyAzBz2QLauOZHytubS83PONs0ILaZ+3CueZi/nR54/pPg/bUjZ7O9v3J37aAW5uH/mLoNaLa5Z/fu2c2hUe6u7Xbr/fvkX8+WapNt7M/fZxvWP5uFIrgh5N1HbCelyv8b5Rotfxc4L/6rbX4QaNW+E/Gwsjlff0zrzH007LmPKNl8R7kh06nL9cQNzxdG30H3PPWu/U5yw+3VJ4aaHwn2F2uoevlhCwIgAAIgAAIgAAJ+ELCtjGg0XB4c2OWI8U+b9IZtsPAD4m33P0upNWrZhsx7Lz5CX330Gn329ni6uu+frY16aY3p7ifeNL0ZbYM2eW7M/bdcHnwoO/n0dvYY98hwg+WyHjdTj/532zpuGD0+5Mbgud6OJgbvHN7yAyo3DEa8NIVqH1vPHsretIGqVXc3rI4fILnBUv/4xvSXse/bB012zHFw71NocZXX2Z2voomv/s0+9F7R69agy2+//sjud7jkart15T/o0NHOgQP7afj4ybbXhHvz+P7atH4VbViVEew9mfLeS6ZhsoM6d+tDvX73FxvJGtPYfvTOXhFXzZPY7HPnaGtn4YyplPnQQjrrgiuo641/jJilRusZ4N7Ge8a+ZxtCh0xv2HMjfk/cg/LtVx/ReZddY2WntTuffnX974l7D9989kHqfcdIevGRO22uA+55skjvi2cXWxAAARAAARAAARDwi0BwIv6db2+j7XsK6Mnrji1TLOde2p0u+vWNwb8zeYhWSOFfe7nww9JP5hdubljwcJv00wobJjwEyiu1jq5jGyz8azQvWcw9GCvNXxPTy8FlW/YmT0rLFs6w+5dc/dtgHTdoTjq1dfCzt6OJwTvH2/Y0D6xeg4XrePgOD2/zyglNTqYrfzPQ/tnhad6BMm6rm1/fq1StRrlmCE9oI4V/JT/uhCZFrLrK6+yLf22Hxnn22Wn+vjzinh7u0Tq9/YU2Du+45NoWCdx8KI0r66PN1ouB7xMebsclpUpV4t4lLtxj4ZVlCwrvy19e+/9V8HgYWWiD2tPyVmIzVO9i/6zzLw/23PDQvc5X3WTdhH7HuKKLabRwj+esLz6kMXddT6szFtvGWbsLr3QRFmyCAAiAAAiAAAiAQJkJ2J6WpvVS6MM/FPYgXDxmc5mMXXPz4CIP8T989y0tnv1V0NbPG1bbff7lPlLJ3rQ+WM29Ce+99Ch989k79iE5eODwTt7hoTn8kXskeLgZD6MJLcc3SqfVP3wXWkWaGEJPDJj5HSe1ODO0qth+2oknU7c+g4rVl7XiqJq1iRsNPN+BewC4odLM9DxdaIb1hMfiKi8essQ9YxlmaB73PvAwNZ6PxEPvzr2sux1qxPm58u+xizZbzy7nFlq4h4+LN7SQe/dyfv6JqlVLLXZ/HWeGAPIwrPBSms1wvYvPXkPMs31cw6Z2l78roYUbNP2HPk4jb7uKuPeIG/o9binsrQzVYR8EQAAEQAAEQAAE/CaQ0qZxVfp6yHE2Dm6wLFqfH/WY+OGPh9/ww/+9ZthKpJKcYttP9hC/u+Krf0+ghk2bU4dLulHTU88kfoif9tHrNN00ZHjICxe2yw2c5LCJ+XwsEGLP02pi4HO8whOYeS5ARReeAM89WNM/fdsuAMDzf/jv0mv60bW3DLXhaNmG5iDJq8OlV9tGC/emcKPF61Xxhoa59h8ab7T3q6UeVbpJc49RoHD+VOliIpFNiaFyaMLvVW6ccOH7P7zs3JYTnJ+zc1s25e3JDU7YD9fiMwiAAAiAAAiAAAj4RSDllZvrWN+uGixsnCfN1zc9BRvXrqCj69QvMswqUuLfHe6h6XvXI2ZuwWlBSfiL+9jusaY3gCfE84RqHsvvlWK/Kitj8Ozw1pv0H1oXvs8Ttnn1Mi71zS/2oXGHazWfebgR/3Hj7DuzytULowfRTNP7wr06PHxMyzbUtySvtmay/b/GDae5//nENpa+N8P4eEUxHiLFxbV/9uGKLds+UuHc6hx3AvFkeX55auhwwJzNPx3pVNExj/9BM7emtKLRht/73nA3/q6EFu5ResGsIrbfLPBw9kVdac60SfSPxwbTHx8cbxdYCNViHwRAAARAAARAAAT8JBDo94+t1HbEJic9LKGJtWx7nv3IS7KGF/4F2Huw4mP5+/ZaCc/r8Ao/iPEQlvDiPTzPNQ9cXtm6JSviW8Y1MXi2pNuVZqgQr8TEf1+bHqHyFp47km+WxfUKz2XhpXZ5Vag9ZmW20NXZXOZVrfpR1Oa8y+w8Ip6wXVBwkDp07uaFZbcu/bODaLMtEnwpH1q0OdcqQu9bbnzznKzylhpmXhCXVWaFutKKRssT/O3qZIeNzv268LvhfVc8X689+Ve79PiV1w2km+9+nNqa6/z9/On0yZvPeRJsQQAEQAAEQAAEQCAmCKS4GA4WKTNeHWnefyfTlHdftJPredI2l59W/0Dz/jOZLjLvzPBWUOL3Ssz8/AN60fQq8PAk7mXgh0YeihReLu85gOZP/5Teef4h+y4TniDOQ8t4meLwookh/NyK/rw+cxk9M2wA8aRoftjk3HkFqO1bN1Pj9JZFeqtc53WuWSWMh4UtnPm57VnhVcVCi2v/ob4qev9ys2oar7rF7xfiuTvcWzHP9DrxO2rKW3j441FmFb0VS+fS2L/eTM1OO8u+g+j8K3vZhQ5C7Wu028xCAk/d29cOLeRFL3h1N15WuVPXG4Im+Tsyz3xvmp/R3i5pzQf4vUPrM5fTZNNo4XlTvMw2CgiAAAiAAAiAAAjEAoFyT9RIosjj/b16b1gLL3HM81l4qBG/lI8fgL3S6KRTg8ONuK6Hma/BK4TxC/fWmYd3tsG/ePNDl53Ibz57hedZ3PrXp+mfT9xjl2/lerbXvlMXO6TJG8/P9ZoYWM8l9PzCmsj/vTw150S2VFjLL9vkifA8EZ//vMLvCukd9rJHl3mxX25E8rA+fr/JKeZloKHvFOHjrv1Hmy2/LJRLqN3Cz4frQ+5pznWIWX779aeHmeF5X9s5K9wjwfOzeH4VrzrGRWPTnmD+8TytAX8Za19KusYsGuG9YPLMcy8p1mjRaHkVP+5tef2Z+62rY+sdTwOHjbP+uGLtiqX0/kuPEa/S1//uJ4LLabOPW+59kh4ffAO98tgQuv/5SUUax9YY/oEACIAACIAACICADwSSqP/a4t0XEQL5ePCJEWrLVsVDn37esMr+Ws1zBvjhKVLhYV48bCytcTP7YBxJ49VxbwwP26l+VA2zHHHhKlDesUhbaQyRzq3Iul3mrenbDIeDBw7Yl1qGLrscKQ6/8/LbfyQm0arjYYy86AM3dp4dPtD2fD08YRpxoyAWCveevDN+NPU2b7nveEVP8zLUlXYBCV49LLyBFgvxIgYQAAEQAAEQAAEQkBIod0+L1FGojpcolkxU51+5w3/VD7UTus9zPrjXRVqkMUjtudJxg66kRl0kn37n5bf/SEzKW8fzPPgdLl6vCr83aPmCGVSvQaNiSyGX11e0zudGyglNTomWOdgBARAAARAAARAAAV8J+NJo8TVjOAcBJQEeKlVwqICanNLK9nptMnNbeHjYtQOGogdDyRJyEAABEAABEAABECgLATRaykIN51QqApf3GkAZi2bbBktV86JJXh64c7c+5v1BrWOKA/dKco/QMfWKvmg1poJEMCAAAiAAAiAAAiBQBgK+zGkpQ5w4BQRAAARAAARAAARAAARAoJISSDJL6Yom4ldSPkgbBEAABEAABEAABEAABEDAZwKFa7z6HATcgwAIgAAIgAAIgAAIgAAIgEBJBNBoKYkM6kEABEAABEAABEAABEAABGKCABotMXEZEAQIgAAIgAAIgAAIgAAIgEBJBMrdaOEpMSVNiznSsZICilb9lClTaPjw4bRmzZpomYwbOxMmTKAxY8bYl3fGatDbt2+nJUuW0PLlyykvLy9Ww6RFixbZ+2jOnDkxGyMCAwEQAAEQAAEQAIFEJ1DuRkunTp2oZcuWlJOTU4QVP+Rxff/+/YvUV9SH+fPn01tvvUVZWVkV5TJm/EycOJFefvnlmGy0TJ06lXr06EEdOnSgnj17Uvfu3aldu3Y0YsQI2r17d8ww9AJZsWKFvY8yMjK8qiNuMzMz6amnniJJI0ejPaJTHAQBEAABEAABEACBBCeQNHnyZKweluAXGemBAAiAAAiAAAiAAAiAQDwTSMrOzkajJZ6vIGIHARAAARAAARAAARAAgQQnkJLg+SE9EAABEAABEAABEAABnwjw/OZdu3YF569Wr16datWqRUlJST5FBLfxSgCNlni9cogbBEAABEAABEAABGKcADdY9uzZE4yS97nBwg0XFBDQECj3RHyNM2hBAARAAARAAARAAAQqD4FIK4Tu3bu38gBAplEjgEZL1FDCEAiAAAiAAAiAAAiAAAiAgAsCaLS4oAqbIAACIAACIAACIAACxHNYwktqamp4FT6DQKkEMKelVEQQgAAIgAAIgAAIgAAIlIWAN3fFGybGjZiaNWuWxRTOqeQEUvjt6SggAAIgAAIgAAIgAAIgAAIgEKsEyvyelrp164pzmiR7mbjYHoQgAAIgAAIgAAIgAAIgAAKxT6Bri+jEiDkt0eEIKyAAAiAAAiAAAiAAAiAAAo4IoNHiCCzMggAIgAAIgAAIgAAIgAAIRIdAgN9UWtElf18eZa3LpIMHD1S06zL58ztev/0zNGkMUp3GplbLehdFk1s8+XeRlwubzDTe7Ervg1jIy1UMUgaudC7y0tjUaDUMXNmVxqDxr9FK/Wt1LmJwYVObV6LqNWw12kTlVVnyShk5ciT17t2b0tPTneectzeXXn70Llo2/xvbYKlarTqd07kbXf/7+ymQnFzM/4olc+mzd16gFUvnmrenBmjsBwuKabwKF1pNvH779zhIt9J4pQykOo7PlZZtS/PSaDXxsl1pkcaq9e+n3ViJVXoNNPFKubJvqVbj35VdTQzSvKT8PZ3GrlSryUvKVmNTo5X6Z53WLp8jLRK2Gv8aLcco8e/lItW6iEFr04tZspXmxbb81rrwr2Gr0UrYexoXecXC9dLE4IqBx7is25QNGzbQM888Qw8++CDVrl27rHZE5z1z3y2UuXwhndTiTGp+xtm0eNYXNP3Tt+nQoQLq/aeRQRvZmzbQK2OGWK1XmZSU5O0W2brSshNJvH77LwJD8EETr5SBRudKq8lLo9XGy/rSiiv/sWBX8p1hPq5iLY19+HFJvJpYNVqOReKfda7sSmPQ+me7kqKxq9GybxdspTZd+dfYZa20aNj6zUATK+cvjVdjV2pTyp91Gv9+a135Zw4athot2y6tuMornuy6irU09tLjgbS0NMrNzaVly5ZJzymTjltt3GA5ockp9OdHJlD3fnfR7+4bZ23NnPoB7dyWHbS7ZeNaq23Z9jy68+FXqUqVqsFj4TuutNJ4/fYfzqO0z5p4pQykOo7NlVaTl0aribc09t5xV/79tqth5SpWj7FkK41XE6tGK/XPubiyK41B41/C3tNo7Gq00rw0bDU2NVpXeXmMJVtpDJq8NFqpf831Yq2LGDQ2Jew9jSsGLuy6sKm9Xi6ug6u84smuq1i9+7y825SmTZtSVlYW5efnl9fWEc+f/dW/7fHzLruGqlStZvenvvui3RYUHKS50ybRJd372s8NGqfTvWPfoyantLKfj/TPlVYar9/+j8Qm0jFNvFIGUh3H40qryUuj1cQbiXekOlf+/barYeUq1ki8S6qTxquJVaOV+uf4XdmVxqDxXxLvSPUauxqtNC8NW41NjdZVXpF4l1QnjUGTl0Yr9a+5Xqx1EYPGZkm8I9W7YuDCrgub2uvl4jq4yiue7LqKNdI9X5a6lKVLl1IgEKA2bdqU5XzxOdx643Ly6e3sdvmCGTTry4l0TJ3jaPvWzbT58HE+WKd+mv2zwlL+udJK4/Xbfyl4ih3WxCtlINVxMK60mrw0Wk28xWCXUOHKv992NaxcxVoC8ojV0ng1sWq0Uv8cvCu70hg0/iPCLqFSY1ejlealYauxqdG6yqsE5BGrpTFo8tJopf4114u1LmLQ2IwIu4RKVwxc2HVhU3u9XFwHV3nFk11XsZZw26urAzxXpG/fvs7ns3jDv2oefSzl5+2l158eRvXTTqSet95rg96xdYs6eJcn+B2v3/6ZrTQGqU5jU6tlvYuiyS2e/LvIy4VNZhpvdqX3QSzk5SoGKQNXOhd5aWxqtBoGruxKY9D412il/rU6FzG4sKnNK1H1GrYabaLyqox5pfCb7Rs2bOg89907t1sf1VJr0MRX/0Zbt2TRnx99jcwsfFu/Z/cO5zFoHPgdr9/+mZU0BqlOY1OrZb2Losktnvy7yMuFTWYab3al90Es5OUqBikDVzoXeWlsarQaBq7sSmPQ+Ndopf61OhcxuLCpzStR9Rq2Gm2i8qqMeQVycnJo1KhRtG7dOqf5p9aoZe3zcsfTJr1BnbreQKe0+gXty9tj673jToNQGPfi8Stev/0zKmkMUp3GplbLehdFk1s8+XeRlwubzDTe7Ervg1jIy1UMUgaudC7y0tjUaDUMXNmVxqDxr9FK/Wt1LmJwYVObV6LqNWw12kTlVRnzCnTs2NF0dhyiBQtKfgdKNMAcXae+NfP62PvM+OwT6Jp+g+3n3MM9MLWPqRcNN1Gz4Xe8fvtnkNIYpDqNTa2W9S6KJrd48u8iLxc2mWm82ZXeB7GQl6sYpAxc6VzkpbGp0WoYuLIrjUHjX6OV+tfqXMTgwqY2r0TVa9hqtInKqzLmFWjUqJHNe+XKlU7zr398Y2t///58umnQKKpaPdV+XpWxyG7rpRUedxqEwrjf8frtn1FJY5DqNDa1Wta7KJrc4sm/i7xc2GSm8WZXeh/EQl6uYpAycKVzkZfGpkarYeDKrjQGjX+NVupfq3MRgwub2rwSVa9hq9EmKq/KmFdg4cKFNu/69Qt7QlxBaH9RV2uaVyZodngFsdxdO2iRecEkr17mHXflX2vXi8eveP32z7ykMUh1GptaLetdFE1u8eTfRV4ubDLTeLMrvQ9iIS9XMUgZuNK5yEtjU6PVMHBlVxqDxr9GK/Wv1bmIwYVNbV6Jqtew1WgTlVdlzCtl/vz5ttFwwQUXOM2fXxTZKL0FbViVQeOGDaAW5vPCb6YQrxrWvlOXYkscf/rW87RhdYaN6cCB/XYI24sPD7KfGzc7ja7odWswXhdaTbx++w+CEO5I45UykOo4PFdati3NS6PVxMt2pUUaq9a/n3ZjJVbpNdDEK+XKvqVajX9XdjUxSPOS8vd0GrtSrSYvKVuNTY1W6p91Wrt8jrRI2Gr8a7Qco8S/l4tU6yIGrU0vZslWmhfb8lvrwr+GrUYrYe9pXOQVC9dLE4MrBh7j8mzt6mG9evWi9PT08tgp9dwk05vCb7d/fuQf6YfvvqWMxbNNYynZNlh+e9cjxc5fsXQuLTPvcgkt86d/Zj/u22sm74c0WlxoNfH67T+UkWRfGq+UgVTHsbnSsm1pXhqtJl62Ky3SWLX+/bQbK7FKr4EmXilX9i3Vavy7squJQZqXlL+n09iVajV5SdlqbGq0Uv+s09rlc6RFwlbjX6PlGCX+vVykWhcxaG16MUu20rzYlt9aF/41bDVaCXtP4yKvWLhemhhcMfAYl2ebtGXLlkP8rhZt4aWSpWVSYYdJUM7Dwjb/tIYaNm0enNsSPBiDO37H67d/viTSGKQ6jU2tlvUuiia3ePLvIi8XNplpvNmV3gexkJerGKQMXOlc5KWxqdFqGLiyK41B41+jlfrX6lzE4MKmNq9E1WvYarSJyivW8+raIjoRJmVnZxe+KEVprzyNFqUryEEABEAABEAABEAABEAABOKQQLQaLYE4zB0hgwAIgAAIgAAIgAAIgAAIVCICaLRUoouNVEEABEAABEAABEAABEAgHgmkVETQ0eoWqohY4QMEQAAEQAAEQAAEQAAEQCC2CKCnJbauB6IBARAAARAAARAAARAAARAII4BGSxgQfAQBEAABEAABEAABEAABEIgtAr40WvLy8igzM5MOHDgQWzQqMBoNA43WVQrSGKQ6jtOV1hUDF3ZdMdDY1eQltSvVaXyz1pVdaRwa/xqt1L9LBq7ilebmyr/GrkYrzUuj89u/5v6KhVj9ZuuKQTzZ1cSq0WqurQutq1hd2XXBIBZt/g8EIpppyw4uRwAAAABJRU5ErkJggg==;" vertex="1" parent="1">
          <mxGeometry x="20" y="-20" width="630" height="51.92" as="geometry" />
        </mxCell>
        <mxCell id="PGRV0jYM8v0maBaMMQ94-16" value="" style="shape=flexArrow;endArrow=classic;html=1;fontSize=16;fillColor=#ffcc99;strokeColor=#36393d;" edge="1" parent="1">
          <mxGeometry width="50" height="50" relative="1" as="geometry">
            <mxPoint x="299.5" y="60" as="sourcePoint" />
            <mxPoint x="300" y="170" as="targetPoint" />
          </mxGeometry>
        </mxCell>
        <mxCell id="PGRV0jYM8v0maBaMMQ94-17" value="二进制数据&lt;br&gt;对应的静态头部格式" style="text;html=1;align=center;verticalAlign=middle;resizable=0;points=[];autosize=1;fontSize=16;fillColor=#ffff88;strokeColor=#36393d;" vertex="1" parent="1">
          <mxGeometry x="330" y="90" width="160" height="40" as="geometry" />
        </mxCell>
      </root>
    </mxGraphModel>
  </diagram>
</mxfile>
